# xmcd CD database file
#
# Track frame offsets:
#	150
#	20230
#	39432
#	72165
#	95057
#	112357
#	130397
#	151357
#	175857
#	199552
#
# Disc length: 2972 seconds
#
# Revision: 6
# Processed by: cddbd v1.5.2PL0 Copyright (c) Steve Scherf et al.
# Submitted via: CDex 1.51
#
DISCID=8f0b9a0a
DTITLE=The Robert Cray Band - I Was Warned
DYEAR=1992
DGENRE=Blues
TTITLE0=Just A Loser
TTITLE1=I'm A Good Man
TTITLE2=I Was Warned
TTITLE3=The Price I Pay
TTITLE4=Won The Battle
TTITLE5=On The Road Down
TTITLE6=A Whole Lotta Pride
TTITLE7=A Picture Of A Broken Heart
TTITLE8=He Don't Live Here Anymore
TTITLE9=Our Last Time
EXTD=YEAR: 1992
EXTT0=
EXTT1=
EXTT2=
EXTT3=
EXTT4=
EXTT5=
EXTT6=
EXTT7=
EXTT8=
EXTT9=
PLAYORDER=
